<?xml version="1.0" standalone="no"?><!DOCTYPE svg PUBLIC "-//W3C//DTD SVG 1.1//EN" "http://www.w3.org/Graphics/SVG/1.1/DTD/svg11.dtd"><svg width="100%" height="100%" viewBox="0 0 889 35" version="1.1" xmlns="http://www.w3.org/2000/svg" xmlns:xlink="http://www.w3.org/1999/xlink" xml:space="preserve" style="fill-rule:evenodd;clip-rule:evenodd;stroke-linejoin:round;stroke-miterlimit:1.41421;"><path d="M688.242,29.959l0,-26.072l3.45,0l0,10.706l13.551,0l0,-10.706l3.45,0l0,26.072l-3.45,0l0,-12.289l-13.551,0l0,12.289l-3.45,0Z" style="fill:#3f3f3f;fill-rule:nonzero;"/><path d="M726.468,23.413l3.308,0.409c-0.521,1.932 -1.488,3.432 -2.899,4.499c-1.41,1.067 -3.213,1.601 -5.406,1.601c-2.762,0 -4.953,-0.851 -6.571,-2.552c-1.618,-1.702 -2.428,-4.088 -2.428,-7.159c0,-3.177 0.819,-5.643 2.455,-7.398c1.636,-1.754 3.758,-2.632 6.366,-2.632c2.526,0 4.589,0.86 6.189,2.579c1.601,1.719 2.401,4.138 2.401,7.256c0,0.19 -0.006,0.474 -0.018,0.853l-14.085,0c0.119,2.075 0.706,3.664 1.761,4.767c1.055,1.102 2.371,1.654 3.948,1.654c1.174,0 2.175,-0.309 3.005,-0.925c0.83,-0.617 1.488,-1.601 1.974,-2.952ZM715.958,18.237l10.546,0c-0.142,-1.588 -0.545,-2.78 -1.209,-3.574c-1.02,-1.233 -2.342,-1.85 -3.966,-1.85c-1.47,0 -2.706,0.492 -3.708,1.476c-1.002,0.984 -1.556,2.3 -1.663,3.948Z" style="fill:#3f3f3f;fill-rule:nonzero;"/><path d="M733.063,29.96l0,-18.886l2.881,0l0,2.863c0.735,-1.34 1.413,-2.223 2.036,-2.65c0.622,-0.427 1.307,-0.64 2.054,-0.64c1.079,0 2.176,0.344 3.29,1.031l-1.103,2.97c-0.782,-0.462 -1.565,-0.693 -2.347,-0.693c-0.7,0 -1.328,0.21 -1.885,0.631c-0.557,0.421 -0.955,1.005 -1.192,1.752c-0.355,1.138 -0.533,2.383 -0.533,3.734l0,9.888l-3.201,0Z" style="fill:#3f3f3f;fill-rule:nonzero;"/><path d="M745.213,30.008l0,-18.886l2.863,0l0,2.65c0.593,-0.925 1.381,-1.669 2.365,-2.232c0.984,-0.563 2.105,-0.845 3.361,-0.845c1.399,0 2.546,0.291 3.441,0.872c0.896,0.58 1.527,1.393 1.894,2.436c1.494,-2.205 3.439,-3.308 5.834,-3.308c1.873,0 3.313,0.519 4.321,1.556c1.008,1.038 1.512,2.635 1.512,4.793l0,12.964l-3.184,0l0,-11.897c0,-1.28 -0.103,-2.202 -0.311,-2.765c-0.207,-0.564 -0.584,-1.017 -1.129,-1.361c-0.545,-0.344 -1.186,-0.516 -1.921,-0.516c-1.328,0 -2.43,0.442 -3.308,1.325c-0.877,0.884 -1.316,2.297 -1.316,4.242l0,10.972l-3.201,0l0,-12.27c0,-1.423 -0.261,-2.49 -0.782,-3.202c-0.522,-0.711 -1.375,-1.067 -2.561,-1.067c-0.901,0 -1.734,0.238 -2.499,0.712c-0.764,0.474 -1.319,1.168 -1.663,2.08c-0.343,0.913 -0.515,2.229 -0.515,3.949l0,9.798l-3.201,0Z" style="fill:#3f3f3f;fill-rule:nonzero;"/><path d="M776.606,7.537l0,-3.681l3.201,0l0,3.681l-3.201,0ZM776.606,29.927l0,-18.887l3.201,0l0,18.887l-3.201,0Z" style="fill:#3f3f3f;fill-rule:nonzero;"/><path d="M794.606,29.932l0,-26.072l3.45,0l0,22.995l12.84,0l0,3.077l-16.29,0Z" style="fill:#3f3f3f;fill-rule:nonzero;"/><path d="M825.621,27.191c-1.185,1.007 -2.327,1.719 -3.423,2.134c-1.097,0.415 -2.274,0.622 -3.53,0.622c-2.075,0 -3.67,-0.507 -4.784,-1.52c-1.115,-1.014 -1.672,-2.309 -1.672,-3.886c0,-0.925 0.21,-1.77 0.631,-2.534c0.421,-0.765 0.973,-1.379 1.654,-1.841c0.682,-0.462 1.45,-0.812 2.303,-1.049c0.629,-0.166 1.577,-0.326 2.846,-0.48c2.584,-0.309 4.487,-0.676 5.708,-1.103c0.012,-0.439 0.018,-0.717 0.018,-0.836c0,-1.304 -0.302,-2.223 -0.907,-2.756c-0.818,-0.724 -2.033,-1.085 -3.646,-1.085c-1.505,0 -2.617,0.264 -3.334,0.791c-0.717,0.528 -1.248,1.461 -1.592,2.801l-3.13,-0.427c0.285,-1.339 0.753,-2.421 1.405,-3.245c0.652,-0.824 1.595,-1.458 2.828,-1.903c1.233,-0.445 2.662,-0.667 4.286,-0.667c1.612,0 2.922,0.19 3.93,0.569c1.008,0.379 1.749,0.857 2.223,1.432c0.474,0.575 0.806,1.301 0.996,2.178c0.107,0.546 0.16,1.53 0.16,2.952l0,4.269c0,2.975 0.068,4.858 0.205,5.646c0.136,0.788 0.406,1.544 0.809,2.267l-3.344,0c-0.332,-0.664 -0.545,-1.44 -0.64,-2.329ZM825.354,20.042c-1.162,0.474 -2.904,0.877 -5.228,1.209c-1.316,0.19 -2.247,0.403 -2.792,0.64c-0.546,0.237 -0.966,0.584 -1.263,1.04c-0.296,0.457 -0.444,0.964 -0.444,1.521c0,0.854 0.323,1.565 0.969,2.134c0.646,0.569 1.591,0.854 2.836,0.854c1.233,0 2.33,-0.27 3.29,-0.809c0.961,-0.54 1.666,-1.278 2.117,-2.215c0.343,-0.723 0.515,-1.79 0.515,-3.201l0,-1.173Z" style="fill:#3f3f3f;fill-rule:nonzero;"/><path d="M832.19,29.999l0,-18.886l2.881,0l0,2.685c1.387,-2.075 3.39,-3.112 6.011,-3.112c1.138,0 2.184,0.204 3.138,0.613c0.955,0.409 1.669,0.946 2.143,1.61c0.475,0.664 0.807,1.452 0.996,2.365c0.119,0.593 0.178,1.63 0.178,3.112l0,11.613l-3.201,0l0,-11.488c0,-1.304 -0.124,-2.28 -0.373,-2.926c-0.249,-0.646 -0.691,-1.162 -1.325,-1.547c-0.635,-0.385 -1.379,-0.578 -2.232,-0.578c-1.364,0 -2.54,0.433 -3.53,1.298c-0.99,0.866 -1.485,2.508 -1.485,4.927l0,10.314l-3.201,0Z" style="fill:#3f3f3f;fill-rule:nonzero;"/><path d="M850.692,29.972l0,-2.597l12.022,-13.8c-1.363,0.071 -2.566,0.107 -3.61,0.107l-7.7,0l0,-2.597l15.436,0l0,2.117l-10.225,11.986l-1.975,2.187c1.435,-0.106 2.781,-0.16 4.037,-0.16l8.732,0l0,2.757l-16.717,0Z" style="fill:#3f3f3f;fill-rule:nonzero;"/><path d="M882.517,27.243c-1.185,1.008 -2.327,1.72 -3.423,2.135c-1.097,0.415 -2.274,0.622 -3.53,0.622c-2.075,0 -3.67,-0.507 -4.784,-1.521c-1.115,-1.013 -1.672,-2.308 -1.672,-3.885c0,-0.925 0.21,-1.77 0.631,-2.535c0.421,-0.764 0.973,-1.378 1.654,-1.84c0.682,-0.463 1.45,-0.812 2.303,-1.049c0.629,-0.166 1.577,-0.326 2.846,-0.481c2.584,-0.308 4.487,-0.675 5.708,-1.102c0.012,-0.439 0.018,-0.717 0.018,-0.836c0,-1.304 -0.302,-2.223 -0.907,-2.757c-0.818,-0.723 -2.033,-1.084 -3.646,-1.084c-1.505,0 -2.617,0.263 -3.334,0.791c-0.717,0.528 -1.248,1.461 -1.592,2.801l-3.13,-0.427c0.285,-1.34 0.753,-2.421 1.405,-3.245c0.652,-0.824 1.595,-1.459 2.828,-1.903c1.233,-0.445 2.662,-0.667 4.286,-0.667c1.612,0 2.922,0.189 3.93,0.569c1.008,0.379 1.749,0.856 2.223,1.431c0.474,0.576 0.806,1.302 0.996,2.179c0.107,0.545 0.16,1.529 0.16,2.952l0,4.268c0,2.976 0.068,4.858 0.205,5.647c0.136,0.788 0.406,1.544 0.809,2.267l-3.344,0c-0.332,-0.664 -0.545,-1.44 -0.64,-2.33ZM882.25,20.094c-1.162,0.475 -2.904,0.878 -5.228,1.21c-1.316,0.189 -2.247,0.403 -2.792,0.64c-0.546,0.237 -0.966,0.584 -1.263,1.04c-0.296,0.457 -0.444,0.964 -0.444,1.521c0,0.853 0.323,1.565 0.969,2.134c0.646,0.569 1.591,0.853 2.836,0.853c1.233,0 2.33,-0.269 3.29,-0.809c0.961,-0.539 1.666,-1.277 2.117,-2.214c0.343,-0.723 0.515,-1.79 0.515,-3.201l0,-1.174Z" style="fill:#3f3f3f;fill-rule:nonzero;"/><path d="M8.943,30.283l675.13,-2.283" style="fill:none;stroke-width:3px;stroke:#f60606;"/></svg>